<?xml version="1.0" encoding="UTF-8" standalone="no"?>
<!DOCTYPE svg PUBLIC "-//W3C//DTD SVG 1.1//EN"
 "http://www.w3.org/Graphics/SVG/1.1/DTD/svg11.dtd">
<!-- Generated by graphviz version 14.1.5 (20260411.2331)
 -->
<!-- Title: G Pages: 1 -->
<svg width="1053pt" height="1020pt"
 viewBox="0.00 0.00 1053.00 1020.00" xmlns="http://www.w3.org/2000/svg" xmlns:xlink="http://www.w3.org/1999/xlink">
<g id="graph0" class="graph" transform="scale(1 1) rotate(0) translate(21.6 998.13)">
<title>G</title>
<polygon fill="#111111" stroke="none" points="-21.6,21.6 -21.6,-998.13 1031.6,-998.13 1031.6,21.6 -21.6,21.6"/>
<!-- App.tsx -->
<g id="node1" class="node">
<title>App.tsx</title>
<path fill="none" stroke="#c6c5fe" d="M238.96,-426.53C238.96,-426.53 193.79,-426.53 193.79,-426.53 189.83,-426.53 185.88,-422.57 185.88,-418.61 185.88,-418.61 185.88,-410.7 185.88,-410.7 185.88,-406.74 189.83,-402.78 193.79,-402.78 193.79,-402.78 238.96,-402.78 238.96,-402.78 242.92,-402.78 246.88,-406.74 246.88,-410.7 246.88,-410.7 246.88,-418.61 246.88,-418.61 246.88,-422.57 242.92,-426.53 238.96,-426.53"/>
<text xml:space="preserve" text-anchor="middle" x="216.38" y="-409.23" font-family="Arial" font-size="14.00" fill="#c6c5fe">App.tsx</text>
</g>
<!-- components/GameCard.tsx -->
<g id="node2" class="node">
<title>components/GameCard.tsx</title>
<path fill="none" stroke="#c6c5fe" d="M492.71,-530.53C492.71,-530.53 326.04,-530.53 326.04,-530.53 322.08,-530.53 318.12,-526.57 318.12,-522.61 318.12,-522.61 318.12,-514.7 318.12,-514.7 318.12,-510.74 322.08,-506.78 326.04,-506.78 326.04,-506.78 492.71,-506.78 492.71,-506.78 496.67,-506.78 500.62,-510.74 500.62,-514.7 500.62,-514.7 500.62,-522.61 500.62,-522.61 500.62,-526.57 496.67,-530.53 492.71,-530.53"/>
<text xml:space="preserve" text-anchor="middle" x="409.38" y="-513.23" font-family="Arial" font-size="14.00" fill="#c6c5fe">components/GameCard.tsx</text>
</g>
<!-- App.tsx&#45;&gt;components/GameCard.tsx -->
<g id="edge1" class="edge">
<title>App.tsx&#45;&gt;components/GameCard.tsx</title>
<path fill="none" stroke="#757575" d="M224.07,-426.86C234.95,-445.44 258.33,-480.46 288.5,-497.65 294.26,-500.94 300.41,-503.73 306.77,-506.11"/>
<polygon fill="#757575" stroke="#757575" points="305.61,-509.41 316.2,-509.24 307.82,-502.77 305.61,-509.41"/>
</g>
<!-- components/GameDetailView.tsx -->
<g id="node3" class="node">
<title>components/GameDetailView.tsx</title>
<path fill="none" stroke="#c6c5fe" d="M509.58,-328.53C509.58,-328.53 309.17,-328.53 309.17,-328.53 305.21,-328.53 301.25,-324.57 301.25,-320.61 301.25,-320.61 301.25,-312.7 301.25,-312.7 301.25,-308.74 305.21,-304.78 309.17,-304.78 309.17,-304.78 509.58,-304.78 509.58,-304.78 513.54,-304.78 517.5,-308.74 517.5,-312.7 517.5,-312.7 517.5,-320.61 517.5,-320.61 517.5,-324.57 513.54,-328.53 509.58,-328.53"/>
<text xml:space="preserve" text-anchor="middle" x="409.38" y="-311.23" font-family="Arial" font-size="14.00" fill="#c6c5fe">components/GameDetailView.tsx</text>
</g>
<!-- App.tsx&#45;&gt;components/GameDetailView.tsx -->
<g id="edge2" class="edge">
<title>App.tsx&#45;&gt;components/GameDetailView.tsx</title>
<path fill="none" stroke="#757575" d="M241.02,-402.39C245.06,-399.78 249.06,-396.84 252.5,-393.65 272.85,-374.79 265.37,-357.97 288.5,-342.65 294.02,-339 299.96,-335.85 306.15,-333.14"/>
<polygon fill="#757575" stroke="#757575" points="307.32,-336.44 315.34,-329.52 304.75,-329.92 307.32,-336.44"/>
</g>
<!-- components/GameForm.tsx -->
<g id="node4" class="node">
<title>components/GameForm.tsx</title>
<path fill="none" stroke="#c6c5fe" d="M494.21,-488.53C494.21,-488.53 324.54,-488.53 324.54,-488.53 320.58,-488.53 316.62,-484.57 316.62,-480.61 316.62,-480.61 316.62,-472.7 316.62,-472.7 316.62,-468.74 320.58,-464.78 324.54,-464.78 324.54,-464.78 494.21,-464.78 494.21,-464.78 498.17,-464.78 502.12,-468.74 502.12,-472.7 502.12,-472.7 502.12,-480.61 502.12,-480.61 502.12,-484.57 498.17,-488.53 494.21,-488.53"/>
<text xml:space="preserve" text-anchor="middle" x="409.38" y="-471.23" font-family="Arial" font-size="14.00" fill="#c6c5fe">components/GameForm.tsx</text>
</g>
<!-- App.tsx&#45;&gt;components/GameForm.tsx -->
<g id="edge3" class="edge">
<title>App.tsx&#45;&gt;components/GameForm.tsx</title>
<path fill="none" stroke="#757575" d="M234.65,-426.93C248.56,-436.22 268.94,-448.55 288.5,-455.65 294.48,-457.83 300.71,-459.78 307.05,-461.53"/>
<polygon fill="#757575" stroke="#757575" points="305.78,-464.81 316.34,-463.92 307.52,-458.03 305.78,-464.81"/>
</g>
<!-- components/NotificationList.tsx -->
<g id="node5" class="node">
<title>components/NotificationList.tsx</title>
<path fill="none" stroke="#cfffac" d="M502.83,-248.53C502.83,-248.53 315.92,-248.53 315.92,-248.53 311.96,-248.53 308,-244.57 308,-240.61 308,-240.61 308,-232.7 308,-232.7 308,-228.74 311.96,-224.78 315.92,-224.78 315.92,-224.78 502.83,-224.78 502.83,-224.78 506.79,-224.78 510.75,-228.74 510.75,-232.7 510.75,-232.7 510.75,-240.61 510.75,-240.61 510.75,-244.57 506.79,-248.53 502.83,-248.53"/>
<text xml:space="preserve" text-anchor="middle" x="409.38" y="-231.23" font-family="Arial" font-size="14.00" fill="#cfffac">components/NotificationList.tsx</text>
</g>
<!-- App.tsx&#45;&gt;components/NotificationList.tsx -->
<g id="edge4" class="edge">
<title>App.tsx&#45;&gt;components/NotificationList.tsx</title>
<path fill="none" stroke="#757575" d="M243.43,-402.29C246.84,-399.81 250.01,-396.93 252.5,-393.65 289.04,-345.59 244.65,-304.17 288.5,-262.65 291.62,-259.7 295,-257.05 298.57,-254.67"/>
<polygon fill="#757575" stroke="#757575" points="300.19,-257.78 307.11,-249.76 296.7,-251.71 300.19,-257.78"/>
</g>
<!-- components/SignedUpGameCard.tsx -->
<g id="node6" class="node">
<title>components/SignedUpGameCard.tsx</title>
<path fill="none" stroke="#c6c5fe" d="M522.33,-446.53C522.33,-446.53 296.42,-446.53 296.42,-446.53 292.46,-446.53 288.5,-442.57 288.5,-438.61 288.5,-438.61 288.5,-430.7 288.5,-430.7 288.5,-426.74 292.46,-422.78 296.42,-422.78 296.42,-422.78 522.33,-422.78 522.33,-422.78 526.29,-422.78 530.25,-426.74 530.25,-430.7 530.25,-430.7 530.25,-438.61 530.25,-438.61 530.25,-442.57 526.29,-446.53 522.33,-446.53"/>
<text xml:space="preserve" text-anchor="middle" x="409.38" y="-429.23" font-family="Arial" font-size="14.00" fill="#c6c5fe">components/SignedUpGameCard.tsx</text>
</g>
<!-- App.tsx&#45;&gt;components/SignedUpGameCard.tsx -->
<g id="edge5" class="edge">
<title>App.tsx&#45;&gt;components/SignedUpGameCard.tsx</title>
<path fill="none" stroke="#757575" d="M247.22,-417.78C256.52,-418.75 267.43,-419.9 279.12,-421.12"/>
<polygon fill="#757575" stroke="#757575" points="278.72,-424.6 289.03,-422.16 279.45,-417.64 278.72,-424.6"/>
</g>
<!-- components/TagFilterGroup.tsx -->
<g id="node7" class="node">
<title>components/TagFilterGroup.tsx</title>
<path fill="none" stroke="#cfffac" d="M503.96,-206.53C503.96,-206.53 314.79,-206.53 314.79,-206.53 310.83,-206.53 306.88,-202.57 306.88,-198.61 306.88,-198.61 306.88,-190.7 306.88,-190.7 306.88,-186.74 310.83,-182.78 314.79,-182.78 314.79,-182.78 503.96,-182.78 503.96,-182.78 507.92,-182.78 511.88,-186.74 511.88,-190.7 511.88,-190.7 511.88,-198.61 511.88,-198.61 511.88,-202.57 507.92,-206.53 503.96,-206.53"/>
<text xml:space="preserve" text-anchor="middle" x="409.38" y="-189.23" font-family="Arial" font-size="14.00" fill="#cfffac">components/TagFilterGroup.tsx</text>
</g>
<!-- App.tsx&#45;&gt;components/TagFilterGroup.tsx -->
<g id="edge6" class="edge">
<title>App.tsx&#45;&gt;components/TagFilterGroup.tsx</title>
<path fill="none" stroke="#757575" d="M243.64,-402.44C247.02,-399.94 250.12,-397.02 252.5,-393.65 299.12,-327.77 230.69,-271.98 288.5,-215.65 291.07,-213.16 293.82,-210.89 296.72,-208.85"/>
<polygon fill="#757575" stroke="#757575" points="298.36,-211.95 305.15,-203.82 294.77,-205.94 298.36,-211.95"/>
</g>
<!-- components/ui/AppNavbar.tsx -->
<g id="node8" class="node">
<title>components/ui/AppNavbar.tsx</title>
<path fill="none" stroke="#c6c5fe" d="M499.46,-164.53C499.46,-164.53 319.29,-164.53 319.29,-164.53 315.33,-164.53 311.38,-160.57 311.38,-156.61 311.38,-156.61 311.38,-148.7 311.38,-148.7 311.38,-144.74 315.33,-140.78 319.29,-140.78 319.29,-140.78 499.46,-140.78 499.46,-140.78 503.42,-140.78 507.38,-144.74 507.38,-148.7 507.38,-148.7 507.38,-156.61 507.38,-156.61 507.38,-160.57 503.42,-164.53 499.46,-164.53"/>
<text xml:space="preserve" text-anchor="middle" x="409.38" y="-147.23" font-family="Arial" font-size="14.00" fill="#c6c5fe">components/ui/AppNavbar.tsx</text>
</g>
<!-- App.tsx&#45;&gt;components/ui/AppNavbar.tsx -->
<g id="edge7" class="edge">
<title>App.tsx&#45;&gt;components/ui/AppNavbar.tsx</title>
<path fill="none" stroke="#757575" d="M243.75,-402.52C247.11,-400 250.18,-397.06 252.5,-393.65 308.2,-311.72 218.84,-244.11 288.5,-173.65 292.34,-169.77 296.62,-166.46 301.22,-163.65"/>
<polygon fill="#757575" stroke="#757575" points="302.46,-166.95 309.72,-159.23 299.23,-160.73 302.46,-166.95"/>
</g>
<!-- components/ui/BottomTabBar.tsx -->
<g id="node9" class="node">
<title>components/ui/BottomTabBar.tsx</title>
<path fill="none" stroke="#c6c5fe" d="M773.08,-46.53C773.08,-46.53 574.17,-46.53 574.17,-46.53 570.21,-46.53 566.25,-42.57 566.25,-38.61 566.25,-38.61 566.25,-30.7 566.25,-30.7 566.25,-26.74 570.21,-22.78 574.17,-22.78 574.17,-22.78 773.08,-22.78 773.08,-22.78 777.04,-22.78 781,-26.74 781,-30.7 781,-30.7 781,-38.61 781,-38.61 781,-42.57 777.04,-46.53 773.08,-46.53"/>
<text xml:space="preserve" text-anchor="middle" x="673.62" y="-29.23" font-family="Arial" font-size="14.00" fill="#c6c5fe">components/ui/BottomTabBar.tsx</text>
</g>
<!-- App.tsx&#45;&gt;components/ui/BottomTabBar.tsx -->
<g id="edge8" class="edge">
<title>App.tsx&#45;&gt;components/ui/BottomTabBar.tsx</title>
<path fill="none" stroke="#757575" d="M244.26,-402.36C247.47,-399.89 250.35,-397 252.5,-393.65 292.65,-330.98 234.82,-112.22 288.5,-60.65 377.24,24.59 536.99,0.68 619.73,-19.48"/>
<polygon fill="#757575" stroke="#757575" points="618.86,-22.87 629.41,-21.92 620.57,-16.08 618.86,-22.87"/>
</g>
<!-- components/ui/Button.tsx -->
<g id="node10" class="node">
<title>components/ui/Button.tsx</title>
<path fill="none" stroke="#cfffac" d="M749.83,-387.53C749.83,-387.53 597.42,-387.53 597.42,-387.53 593.46,-387.53 589.5,-383.57 589.5,-379.61 589.5,-379.61 589.5,-371.7 589.5,-371.7 589.5,-367.74 593.46,-363.78 597.42,-363.78 597.42,-363.78 749.83,-363.78 749.83,-363.78 753.79,-363.78 757.75,-367.74 757.75,-371.7 757.75,-371.7 757.75,-379.61 757.75,-379.61 757.75,-383.57 753.79,-387.53 749.83,-387.53"/>
<text xml:space="preserve" text-anchor="middle" x="673.62" y="-370.23" font-family="Arial" font-size="14.00" fill="#cfffac">components/ui/Button.tsx</text>
</g>
<!-- App.tsx&#45;&gt;components/ui/Button.tsx -->
<g id="edge9" class="edge">
<title>App.tsx&#45;&gt;components/ui/Button.tsx</title>
<path fill="none" stroke="#757575" d="M247.25,-412.1C313.22,-406.44 473.72,-392.69 577.62,-383.79"/>
<polygon fill="#757575" stroke="#757575" points="577.89,-387.28 587.55,-382.94 577.29,-380.31 577.89,-387.28"/>
</g>
<!-- components/ui/viewNames.ts -->
<g id="node11" class="node">
<title>components/ui/viewNames.ts</title>
<path fill="none" stroke="#cfffac" d="M1002.08,-106.53C1002.08,-106.53 824.92,-106.53 824.92,-106.53 820.96,-106.53 817,-102.57 817,-98.61 817,-98.61 817,-90.7 817,-90.7 817,-86.74 820.96,-82.78 824.92,-82.78 824.92,-82.78 1002.08,-82.78 1002.08,-82.78 1006.04,-82.78 1010,-86.74 1010,-90.7 1010,-90.7 1010,-98.61 1010,-98.61 1010,-102.57 1006.04,-106.53 1002.08,-106.53"/>
<text xml:space="preserve" text-anchor="middle" x="913.5" y="-89.23" font-family="Arial" font-size="14.00" fill="#cfffac">components/ui/viewNames.ts</text>
</g>
<!-- App.tsx&#45;&gt;components/ui/viewNames.ts -->
<g id="edge10" class="edge">
<title>App.tsx&#45;&gt;components/ui/viewNames.ts</title>
<path fill="none" stroke="#757575" d="M244.22,-402.34C247.43,-399.87 250.33,-396.99 252.5,-393.65 288.73,-337.91 238.98,-141.01 288.5,-96.65 364.47,-28.6 666.25,-59.57 820.57,-80.72"/>
<polygon fill="#757575" stroke="#757575" points="819.99,-84.17 830.38,-82.08 820.95,-77.24 819.99,-84.17"/>
</g>
<!-- data.ts -->
<g id="node12" class="node">
<title>data.ts</title>
<path fill="none" stroke="#c6c5fe" d="M693.96,-589.53C693.96,-589.53 653.29,-589.53 653.29,-589.53 649.33,-589.53 645.38,-585.57 645.38,-581.61 645.38,-581.61 645.38,-573.7 645.38,-573.7 645.38,-569.74 649.33,-565.78 653.29,-565.78 653.29,-565.78 693.96,-565.78 693.96,-565.78 697.92,-565.78 701.88,-569.74 701.88,-573.7 701.88,-573.7 701.88,-581.61 701.88,-581.61 701.88,-585.57 697.92,-589.53 693.96,-589.53"/>
<text xml:space="preserve" text-anchor="middle" x="673.62" y="-572.23" font-family="Arial" font-size="14.00" fill="#c6c5fe">data.ts</text>
</g>
<!-- App.tsx&#45;&gt;data.ts -->
<g id="edge11" class="edge">
<title>App.tsx&#45;&gt;data.ts</title>
<path fill="none" stroke="#757575" d="M219.15,-426.77C225.88,-470.79 251.32,-621.09 288.5,-648.65 399.14,-730.66 575.96,-637.89 644.35,-596.02"/>
<polygon fill="#757575" stroke="#757575" points="646.08,-599.06 652.71,-590.8 642.37,-593.12 646.08,-599.06"/>
</g>
<!-- lib/datetime.ts -->
<g id="node13" class="node">
<title>lib/datetime.ts</title>
<path fill="none" stroke="#cfffac" d="M715.71,-429.53C715.71,-429.53 631.54,-429.53 631.54,-429.53 627.58,-429.53 623.62,-425.57 623.62,-421.61 623.62,-421.61 623.62,-413.7 623.62,-413.7 623.62,-409.74 627.58,-405.78 631.54,-405.78 631.54,-405.78 715.71,-405.78 715.71,-405.78 719.67,-405.78 723.62,-409.74 723.62,-413.7 723.62,-413.7 723.62,-421.61 723.62,-421.61 723.62,-425.57 719.67,-429.53 715.71,-429.53"/>
<text xml:space="preserve" text-anchor="middle" x="673.62" y="-412.23" font-family="Arial" font-size="14.00" fill="#cfffac">lib/datetime.ts</text>
</g>
<!-- App.tsx&#45;&gt;lib/datetime.ts -->
<g id="edge12" class="edge">
<title>App.tsx&#45;&gt;lib/datetime.ts</title>
<path fill="none" stroke="#757575" d="M247.13,-414.14C259.87,-413.95 274.92,-413.75 288.5,-413.65 395.94,-412.9 422.82,-412.15 530.25,-413.65 557.05,-414.03 586.68,-414.81 611.94,-415.57"/>
<polygon fill="#757575" stroke="#757575" points="611.6,-419.06 621.7,-415.88 611.82,-412.07 611.6,-419.06"/>
</g>
<!-- lib/firebase.ts -->
<g id="node14" class="node">
<title>lib/firebase.ts</title>
<path fill="none" stroke="#cfffac" d="M713.46,-810.53C713.46,-810.53 633.79,-810.53 633.79,-810.53 629.83,-810.53 625.88,-806.57 625.88,-802.61 625.88,-802.61 625.88,-794.7 625.88,-794.7 625.88,-790.74 629.83,-786.78 633.79,-786.78 633.79,-786.78 713.46,-786.78 713.46,-786.78 717.42,-786.78 721.38,-790.74 721.38,-794.7 721.38,-794.7 721.38,-802.61 721.38,-802.61 721.38,-806.57 717.42,-810.53 713.46,-810.53"/>
<text xml:space="preserve" text-anchor="middle" x="673.62" y="-793.23" font-family="Arial" font-size="14.00" fill="#cfffac">lib/firebase.ts</text>
</g>
<!-- App.tsx&#45;&gt;lib/firebase.ts -->
<g id="edge13" class="edge">
<title>App.tsx&#45;&gt;lib/firebase.ts</title>
<path fill="none" stroke="#757575" d="M217.82,-426.93C220.2,-485.09 233.48,-731.99 288.5,-779.65 335.67,-820.52 518.81,-811.83 614.16,-804.17"/>
<polygon fill="#757575" stroke="#757575" points="614.43,-807.66 624.11,-803.35 613.86,-800.69 614.43,-807.66"/>
</g>
<!-- lib/games.ts -->
<g id="node15" class="node">
<title>lib/games.ts</title>
<path fill="none" stroke="#c6c5fe" d="M445.83,-850.53C445.83,-850.53 372.92,-850.53 372.92,-850.53 368.96,-850.53 365,-846.57 365,-842.61 365,-842.61 365,-834.7 365,-834.7 365,-830.74 368.96,-826.78 372.92,-826.78 372.92,-826.78 445.83,-826.78 445.83,-826.78 449.79,-826.78 453.75,-830.74 453.75,-834.7 453.75,-834.7 453.75,-842.61 453.75,-842.61 453.75,-846.57 449.79,-850.53 445.83,-850.53"/>
<text xml:space="preserve" text-anchor="middle" x="409.38" y="-833.23" font-family="Arial" font-size="14.00" fill="#c6c5fe">lib/games.ts</text>
</g>
<!-- App.tsx&#45;&gt;lib/games.ts -->
<g id="edge14" class="edge">
<title>App.tsx&#45;&gt;lib/games.ts</title>
<path fill="none" stroke="#757575" d="M217.79,-427.01C220.11,-487.91 233.33,-755.42 288.5,-812.65 305.13,-829.9 330.29,-837.01 353.27,-839.56"/>
<polygon fill="#757575" stroke="#757575" points="352.93,-843.05 363.18,-840.37 353.49,-836.07 352.93,-843.05"/>
</g>
<!-- lib/routes.ts -->
<g id="node16" class="node">
<title>lib/routes.ts</title>
<path fill="none" stroke="#c6c5fe" d="M708.21,-126.53C708.21,-126.53 639.04,-126.53 639.04,-126.53 635.08,-126.53 631.12,-122.57 631.12,-118.61 631.12,-118.61 631.12,-110.7 631.12,-110.7 631.12,-106.74 635.08,-102.78 639.04,-102.78 639.04,-102.78 708.21,-102.78 708.21,-102.78 712.17,-102.78 716.12,-106.74 716.12,-110.7 716.12,-110.7 716.12,-118.61 716.12,-118.61 716.12,-122.57 712.17,-126.53 708.21,-126.53"/>
<text xml:space="preserve" text-anchor="middle" x="673.62" y="-109.23" font-family="Arial" font-size="14.00" fill="#c6c5fe">lib/routes.ts</text>
</g>
<!-- App.tsx&#45;&gt;lib/routes.ts -->
<g id="edge15" class="edge">
<title>App.tsx&#45;&gt;lib/routes.ts</title>
<path fill="none" stroke="#757575" d="M244.17,-402.31C247.39,-399.84 250.31,-396.97 252.5,-393.65 317.33,-295.61 201.64,-210.84 288.5,-131.65 335.56,-88.75 525.83,-100.36 619.71,-109.05"/>
<polygon fill="#757575" stroke="#757575" points="619.15,-112.51 629.43,-109.98 619.81,-105.54 619.15,-112.51"/>
</g>
<!-- lib/sports.ts -->
<g id="node17" class="node">
<title>lib/sports.ts</title>
<path fill="none" stroke="#c6c5fe" d="M707.83,-547.53C707.83,-547.53 639.42,-547.53 639.42,-547.53 635.46,-547.53 631.5,-543.57 631.5,-539.61 631.5,-539.61 631.5,-531.7 631.5,-531.7 631.5,-527.74 635.46,-523.78 639.42,-523.78 639.42,-523.78 707.83,-523.78 707.83,-523.78 711.79,-523.78 715.75,-527.74 715.75,-531.7 715.75,-531.7 715.75,-539.61 715.75,-539.61 715.75,-543.57 711.79,-547.53 707.83,-547.53"/>
<text xml:space="preserve" text-anchor="middle" x="673.62" y="-530.23" font-family="Arial" font-size="14.00" fill="#c6c5fe">lib/sports.ts</text>
</g>
<!-- App.tsx&#45;&gt;lib/sports.ts -->
<g id="edge16" class="edge">
<title>App.tsx&#45;&gt;lib/sports.ts</title>
<path fill="none" stroke="#757575" d="M217.1,-426.86C217.01,-464.06 222.43,-576.35 288.5,-623.65 332.18,-654.93 484.14,-651.22 530.25,-623.65 559.26,-606.31 539.06,-576.74 566.25,-556.65 581.61,-545.31 601.5,-539.65 619.92,-536.97"/>
<polygon fill="#757575" stroke="#757575" points="620.11,-540.47 629.64,-535.83 619.3,-533.52 620.11,-540.47"/>
</g>
<!-- pages/ProfilePage.jsx -->
<g id="node18" class="node">
<title>pages/ProfilePage.jsx</title>
<path fill="none" stroke="#cfffac" d="M474.71,-614.53C474.71,-614.53 344.04,-614.53 344.04,-614.53 340.08,-614.53 336.12,-610.57 336.12,-606.61 336.12,-606.61 336.12,-598.7 336.12,-598.7 336.12,-594.74 340.08,-590.78 344.04,-590.78 344.04,-590.78 474.71,-590.78 474.71,-590.78 478.67,-590.78 482.62,-594.74 482.62,-598.7 482.62,-598.7 482.62,-606.61 482.62,-606.61 482.62,-610.57 478.67,-614.53 474.71,-614.53"/>
<text xml:space="preserve" text-anchor="middle" x="409.38" y="-597.23" font-family="Arial" font-size="14.00" fill="#cfffac">pages/ProfilePage.jsx</text>
</g>
<!-- App.tsx&#45;&gt;pages/ProfilePage.jsx -->
<g id="edge17" class="edge">
<title>App.tsx&#45;&gt;pages/ProfilePage.jsx</title>
<path fill="none" stroke="#757575" d="M218.64,-426.66C222.58,-457.76 237.65,-541.3 288.5,-581.65 298.97,-589.97 311.59,-595.45 324.66,-599"/>
<polygon fill="#757575" stroke="#757575" points="323.7,-602.37 334.23,-601.21 325.27,-595.55 323.7,-602.37"/>
</g>
<!-- pages/SettingsPage.jsx -->
<g id="node19" class="node">
<title>pages/SettingsPage.jsx</title>
<path fill="none" stroke="#cfffac" d="M479.96,-572.53C479.96,-572.53 338.79,-572.53 338.79,-572.53 334.83,-572.53 330.88,-568.57 330.88,-564.61 330.88,-564.61 330.88,-556.7 330.88,-556.7 330.88,-552.74 334.83,-548.78 338.79,-548.78 338.79,-548.78 479.96,-548.78 479.96,-548.78 483.92,-548.78 487.88,-552.74 487.88,-556.7 487.88,-556.7 487.88,-564.61 487.88,-564.61 487.88,-568.57 483.92,-572.53 479.96,-572.53"/>
<text xml:space="preserve" text-anchor="middle" x="409.38" y="-555.23" font-family="Arial" font-size="14.00" fill="#cfffac">pages/SettingsPage.jsx</text>
</g>
<!-- App.tsx&#45;&gt;pages/SettingsPage.jsx -->
<g id="edge18" class="edge">
<title>App.tsx&#45;&gt;pages/SettingsPage.jsx</title>
<path fill="none" stroke="#757575" d="M220.56,-427C227.84,-452.58 248.28,-511.34 288.5,-539.65 297.86,-546.25 308.63,-550.99 319.79,-554.37"/>
<polygon fill="#757575" stroke="#757575" points="318.55,-557.66 329.11,-556.82 320.33,-550.89 318.55,-557.66"/>
</g>
<!-- types.ts -->
<g id="node20" class="node">
<title>types.ts</title>
<path fill="none" stroke="#cfffac" d="M936.83,-547.53C936.83,-547.53 890.17,-547.53 890.17,-547.53 886.21,-547.53 882.25,-543.57 882.25,-539.61 882.25,-539.61 882.25,-531.7 882.25,-531.7 882.25,-527.74 886.21,-523.78 890.17,-523.78 890.17,-523.78 936.83,-523.78 936.83,-523.78 940.79,-523.78 944.75,-527.74 944.75,-531.7 944.75,-531.7 944.75,-539.61 944.75,-539.61 944.75,-543.57 940.79,-547.53 936.83,-547.53"/>
<text xml:space="preserve" text-anchor="middle" x="913.5" y="-530.23" font-family="Arial" font-size="14.00" fill="#cfffac">types.ts</text>
</g>
<!-- App.tsx&#45;&gt;types.ts -->
<g id="edge19" class="edge">
<title>App.tsx&#45;&gt;types.ts</title>
<path fill="none" stroke="#757575" d="M242.83,-402.35C246.41,-399.83 249.78,-396.94 252.5,-393.65 282.11,-357.93 251.48,-323.63 288.5,-295.65 332.2,-262.63 734.36,-245.93 781,-274.65 867.79,-328.11 899.34,-458.4 908.91,-512.01"/>
<polygon fill="#757575" stroke="#757575" points="905.45,-512.57 910.55,-521.86 912.36,-511.42 905.45,-512.57"/>
</g>
<!-- components/GameCard.tsx&#45;&gt;components/ui/Button.tsx -->
<g id="edge25" class="edge">
<title>components/GameCard.tsx&#45;&gt;components/ui/Button.tsx</title>
<path fill="none" stroke="#757575" d="M501.12,-513.5C511.73,-509.91 521.77,-504.81 530.25,-497.65 566.67,-466.92 530.16,-427.78 566.25,-396.65 570.12,-393.31 574.37,-390.45 578.88,-387.99"/>
<polygon fill="#757575" stroke="#757575" points="580.12,-391.27 587.71,-383.88 577.17,-384.92 580.12,-391.27"/>
</g>
<!-- components/GameCard.tsx&#45;&gt;data.ts -->
<g id="edge26" class="edge">
<title>components/GameCard.tsx&#45;&gt;data.ts</title>
<path fill="none" stroke="#757575" d="M497.15,-531.01C508.4,-533.44 519.68,-536.3 530.25,-539.65 547.12,-545.01 549.44,-551.12 566.25,-556.65 588.17,-563.87 613.5,-568.99 633.94,-572.37"/>
<polygon fill="#757575" stroke="#757575" points="633.13,-575.79 643.55,-573.88 634.21,-568.87 633.13,-575.79"/>
</g>
<!-- components/GameCard.tsx&#45;&gt;lib/datetime.ts -->
<g id="edge27" class="edge">
<title>components/GameCard.tsx&#45;&gt;lib/datetime.ts</title>
<path fill="none" stroke="#757575" d="M500.27,-506.34C510.51,-503.93 520.7,-501.06 530.25,-497.65 573.3,-482.3 618.59,-454.56 646.22,-436.12"/>
<polygon fill="#757575" stroke="#757575" points="648,-439.15 654.32,-430.64 644.08,-433.35 648,-439.15"/>
</g>
<!-- components/GameCard.tsx&#45;&gt;lib/sports.ts -->
<g id="edge28" class="edge">
<title>components/GameCard.tsx&#45;&gt;lib/sports.ts</title>
<path fill="none" stroke="#757575" d="M500.99,-524.53C540.77,-527.11 586.05,-530.04 620.11,-532.25"/>
<polygon fill="#757575" stroke="#757575" points="619.5,-535.72 629.7,-532.87 619.95,-528.73 619.5,-535.72"/>
</g>
<!-- components/GameCard.tsx&#45;&gt;types.ts -->
<g id="edge29" class="edge">
<title>components/GameCard.tsx&#45;&gt;types.ts</title>
<path fill="none" stroke="#757575" d="M501.05,-525.91C511.43,-529.19 521.43,-533.65 530.25,-539.65 555.63,-556.95 539.46,-583.62 566.25,-598.65 649.48,-645.37 687.93,-619.8 781,-598.65 818.75,-590.08 858.33,-569.27 884.07,-553.9"/>
<polygon fill="#757575" stroke="#757575" points="885.89,-556.89 892.6,-548.69 882.24,-550.92 885.89,-556.89"/>
</g>
<!-- components/GameDetailView.tsx&#45;&gt;components/ui/Button.tsx -->
<g id="edge31" class="edge">
<title>components/GameDetailView.tsx&#45;&gt;components/ui/Button.tsx</title>
<path fill="none" stroke="#757575" d="M468.03,-328.99C487.77,-333.26 509.99,-338.11 530.25,-342.65 556.12,-348.46 584.59,-355.02 609.23,-360.76"/>
<polygon fill="#757575" stroke="#757575" points="608.25,-364.12 618.79,-362.99 609.84,-357.31 608.25,-364.12"/>
</g>
<!-- components/GameDetailView.tsx&#45;&gt;data.ts -->
<g id="edge32" class="edge">
<title>components/GameDetailView.tsx&#45;&gt;data.ts</title>
<path fill="none" stroke="#757575" d="M433.09,-328.88C460.4,-344.76 505.6,-375.08 530.25,-413.65 565.54,-468.88 518.72,-511.53 566.25,-556.65 584.04,-573.54 611.27,-578.68 633.73,-579.65"/>
<polygon fill="#757575" stroke="#757575" points="633.4,-583.15 643.45,-579.8 633.5,-576.15 633.4,-583.15"/>
</g>
<!-- components/GameDetailView.tsx&#45;&gt;lib/datetime.ts -->
<g id="edge33" class="edge">
<title>components/GameDetailView.tsx&#45;&gt;lib/datetime.ts</title>
<path fill="none" stroke="#757575" d="M433.39,-328.92C473.35,-350.14 552.6,-391.91 566.25,-396.65 580.84,-401.73 597.01,-405.71 612.25,-408.77"/>
<polygon fill="#757575" stroke="#757575" points="611.18,-412.13 621.66,-410.56 612.49,-405.25 611.18,-412.13"/>
</g>
<!-- components/GameDetailView.tsx&#45;&gt;lib/routes.ts -->
<g id="edge34" class="edge">
<title>components/GameDetailView.tsx&#45;&gt;lib/routes.ts</title>
<path fill="none" stroke="#757575" d="M442.26,-304.38C467.37,-293.93 502.64,-277.47 530.25,-257.65 581.36,-220.98 630.82,-165.4 655.8,-135.48"/>
<polygon fill="#757575" stroke="#757575" points="658.39,-137.83 662.05,-127.89 652.99,-133.38 658.39,-137.83"/>
</g>
<!-- components/GameDetailView.tsx&#45;&gt;lib/sports.ts -->
<g id="edge35" class="edge">
<title>components/GameDetailView.tsx&#45;&gt;lib/sports.ts</title>
<path fill="none" stroke="#757575" d="M425.63,-328.77C448.51,-347 493.01,-382.65 530.25,-413.65 572.95,-449.21 622.01,-491.6 649.96,-515.89"/>
<polygon fill="#757575" stroke="#757575" points="647.61,-518.48 657.45,-522.41 652.2,-513.2 647.61,-518.48"/>
</g>
<!-- components/GameDetailView.tsx&#45;&gt;types.ts -->
<g id="edge36" class="edge">
<title>components/GameDetailView.tsx&#45;&gt;types.ts</title>
<path fill="none" stroke="#757575" d="M517.64,-318.05C610.85,-320.99 737.56,-329.65 781,-354.65 845.03,-391.52 886.51,-473.53 903.6,-513.25"/>
<polygon fill="#757575" stroke="#757575" points="900.29,-514.4 907.36,-522.29 906.75,-511.71 900.29,-514.4"/>
</g>
<!-- components/GameChat.jsx -->
<g id="node22" class="node">
<title>components/GameChat.jsx</title>
<path fill="none" stroke="#cfffac" d="M756.21,-307.53C756.21,-307.53 591.04,-307.53 591.04,-307.53 587.08,-307.53 583.12,-303.57 583.12,-299.61 583.12,-299.61 583.12,-291.7 583.12,-291.7 583.12,-287.74 587.08,-283.78 591.04,-283.78 591.04,-283.78 756.21,-283.78 756.21,-283.78 760.17,-283.78 764.12,-287.74 764.12,-291.7 764.12,-291.7 764.12,-299.61 764.12,-299.61 764.12,-303.57 760.17,-307.53 756.21,-307.53"/>
<text xml:space="preserve" text-anchor="middle" x="673.62" y="-290.23" font-family="Arial" font-size="14.00" fill="#cfffac">components/GameChat.jsx</text>
</g>
<!-- components/GameDetailView.tsx&#45;&gt;components/GameChat.jsx -->
<g id="edge30" class="edge">
<title>components/GameDetailView.tsx&#45;&gt;components/GameChat.jsx</title>
<path fill="none" stroke="#757575" d="M517.8,-308.05C535.55,-306.63 553.91,-305.16 571.5,-303.75"/>
<polygon fill="#757575" stroke="#757575" points="571.74,-307.24 581.42,-302.96 571.18,-300.27 571.74,-307.24"/>
</g>
<!-- components/GameForm.tsx&#45;&gt;components/ui/Button.tsx -->
<g id="edge37" class="edge">
<title>components/GameForm.tsx&#45;&gt;components/ui/Button.tsx</title>
<path fill="none" stroke="#757575" d="M502.59,-468.9C512.42,-465.67 521.87,-461.37 530.25,-455.65 555.63,-438.36 541.05,-414.22 566.25,-396.65 570.16,-393.93 574.33,-391.54 578.69,-389.44"/>
<polygon fill="#757575" stroke="#757575" points="579.85,-392.75 587.72,-385.65 577.15,-386.29 579.85,-392.75"/>
</g>
<!-- components/GameForm.tsx&#45;&gt;data.ts -->
<g id="edge38" class="edge">
<title>components/GameForm.tsx&#45;&gt;data.ts</title>
<path fill="none" stroke="#757575" d="M502.59,-484.41C512.42,-487.64 521.87,-491.94 530.25,-497.65 555.63,-514.95 541.05,-539.08 566.25,-556.65 585.79,-570.28 612.01,-575.57 633.53,-577.43"/>
<polygon fill="#757575" stroke="#757575" points="633.22,-580.92 643.42,-578.05 633.66,-573.93 633.22,-580.92"/>
</g>
<!-- components/GameForm.tsx&#45;&gt;lib/datetime.ts -->
<g id="edge39" class="edge">
<title>components/GameForm.tsx&#45;&gt;lib/datetime.ts</title>
<path fill="none" stroke="#757575" d="M486.67,-464.32C501.19,-461.68 516.22,-458.75 530.25,-455.65 559.87,-449.12 592.59,-440.49 619.19,-433.1"/>
<polygon fill="#757575" stroke="#757575" points="620.04,-436.5 628.73,-430.43 618.16,-429.76 620.04,-436.5"/>
</g>
<!-- components/GameForm.tsx&#45;&gt;lib/sports.ts -->
<g id="edge40" class="edge">
<title>components/GameForm.tsx&#45;&gt;lib/sports.ts</title>
<path fill="none" stroke="#757575" d="M490.68,-489.03C503.97,-491.56 517.55,-494.44 530.25,-497.65 546.6,-501.79 550.04,-504.98 566.25,-509.65 583.71,-514.69 602.96,-519.59 620.22,-523.75"/>
<polygon fill="#757575" stroke="#757575" points="619.24,-527.11 629.77,-526.02 620.86,-520.3 619.24,-527.11"/>
</g>
<!-- components/GameForm.tsx&#45;&gt;types.ts -->
<g id="edge41" class="edge">
<title>components/GameForm.tsx&#45;&gt;types.ts</title>
<path fill="none" stroke="#757575" d="M502.31,-484.63C577.41,-491.5 686.24,-502.24 781,-514.65 811.02,-518.59 844.73,-523.99 870.51,-528.33"/>
<polygon fill="#757575" stroke="#757575" points="869.81,-531.76 880.26,-529.99 870.99,-524.86 869.81,-531.76"/>
</g>
<!-- components/SignedUpGameCard.tsx&#45;&gt;components/ui/Button.tsx -->
<g id="edge42" class="edge">
<title>components/SignedUpGameCard.tsx&#45;&gt;components/ui/Button.tsx</title>
<path fill="none" stroke="#757575" d="M458.69,-422.29C489.41,-414.58 530.07,-404.63 566.25,-396.65 576.04,-394.5 586.35,-392.33 596.56,-390.25"/>
<polygon fill="#757575" stroke="#757575" points="596.96,-393.74 606.07,-388.33 595.58,-386.87 596.96,-393.74"/>
</g>
<!-- components/SignedUpGameCard.tsx&#45;&gt;data.ts -->
<g id="edge43" class="edge">
<title>components/SignedUpGameCard.tsx&#45;&gt;data.ts</title>
<path fill="none" stroke="#757575" d="M517.46,-446.92C522,-449.42 526.29,-452.32 530.25,-455.65 566.67,-486.39 530.16,-525.53 566.25,-556.65 584.62,-572.49 611.44,-577.71 633.56,-578.98"/>
<polygon fill="#757575" stroke="#757575" points="633.34,-582.48 643.44,-579.28 633.55,-575.48 633.34,-582.48"/>
</g>
<!-- components/SignedUpGameCard.tsx&#45;&gt;lib/datetime.ts -->
<g id="edge44" class="edge">
<title>components/SignedUpGameCard.tsx&#45;&gt;lib/datetime.ts</title>
<path fill="none" stroke="#757575" d="M530.37,-426.88C558.66,-425.04 587.65,-423.16 612.02,-421.58"/>
<polygon fill="#757575" stroke="#757575" points="611.96,-425.09 621.71,-420.95 611.51,-418.11 611.96,-425.09"/>
</g>
<!-- components/SignedUpGameCard.tsx&#45;&gt;lib/sports.ts -->
<g id="edge45" class="edge">
<title>components/SignedUpGameCard.tsx&#45;&gt;lib/sports.ts</title>
<path fill="none" stroke="#757575" d="M500.27,-446.97C510.51,-449.38 520.7,-452.25 530.25,-455.65 552.98,-463.76 608.41,-496.45 643.02,-517.45"/>
<polygon fill="#757575" stroke="#757575" points="640.96,-520.29 651.32,-522.51 644.6,-514.31 640.96,-520.29"/>
</g>
<!-- components/SignedUpGameCard.tsx&#45;&gt;types.ts -->
<g id="edge46" class="edge">
<title>components/SignedUpGameCard.tsx&#45;&gt;types.ts</title>
<path fill="none" stroke="#757575" d="M530.58,-444.84C603.73,-452.68 698.65,-465.8 781,-486.65 813.24,-494.82 848.48,-508.21 874.36,-518.93"/>
<polygon fill="#757575" stroke="#757575" points="872.88,-522.1 883.45,-522.75 875.59,-515.65 872.88,-522.1"/>
</g>
<!-- components/ui/AppNavbar.tsx&#45;&gt;components/ui/Button.tsx -->
<g id="edge47" class="edge">
<title>components/ui/AppNavbar.tsx&#45;&gt;components/ui/Button.tsx</title>
<path fill="none" stroke="#757575" d="M507.71,-159.36C515.97,-162.88 523.67,-167.54 530.25,-173.65 578.26,-218.27 526.3,-264.7 566.25,-316.65 580.83,-335.62 603.33,-349.35 623.89,-358.77"/>
<polygon fill="#757575" stroke="#757575" points="622.45,-361.96 633.02,-362.7 625.22,-355.53 622.45,-361.96"/>
</g>
<!-- components/ui/AppNavbar.tsx&#45;&gt;components/ui/viewNames.ts -->
<g id="edge48" class="edge">
<title>components/ui/AppNavbar.tsx&#45;&gt;components/ui/viewNames.ts</title>
<path fill="none" stroke="#757575" d="M507.49,-154.96C582.7,-155.12 689.17,-151.8 781,-135.65 811.47,-130.3 844.72,-119.89 870.16,-110.9"/>
<polygon fill="#757575" stroke="#757575" points="871.27,-114.22 879.49,-107.53 868.89,-107.63 871.27,-114.22"/>
</g>
<!-- components/ui/AppNavbar.tsx&#45;&gt;lib/routes.ts -->
<g id="edge49" class="edge">
<title>components/ui/AppNavbar.tsx&#45;&gt;lib/routes.ts</title>
<path fill="none" stroke="#757575" d="M495.52,-140.32C536.41,-134.39 584.13,-127.48 619.73,-122.32"/>
<polygon fill="#757575" stroke="#757575" points="619.95,-125.82 629.34,-120.93 618.94,-118.9 619.95,-125.82"/>
</g>
<!-- components/ui/AppNavbar.tsx&#45;&gt;types.ts -->
<g id="edge50" class="edge">
<title>components/ui/AppNavbar.tsx&#45;&gt;types.ts</title>
<path fill="none" stroke="#757575" d="M502.28,-165.01C597.97,-179.54 739.57,-206.23 781,-241.65 867.12,-315.31 899.3,-456.61 908.97,-512.28"/>
<polygon fill="#757575" stroke="#757575" points="905.47,-512.59 910.55,-521.89 912.38,-511.45 905.47,-512.59"/>
</g>
<!-- components/ui/BottomTabBar.tsx&#45;&gt;components/ui/viewNames.ts -->
<g id="edge51" class="edge">
<title>components/ui/BottomTabBar.tsx&#45;&gt;components/ui/viewNames.ts</title>
<path fill="none" stroke="#757575" d="M725.79,-47.01C743.31,-51.29 763.02,-56.13 781,-60.65 805.07,-66.71 831.59,-73.53 854.46,-79.47"/>
<polygon fill="#757575" stroke="#757575" points="853.35,-82.8 863.9,-81.93 855.11,-76.02 853.35,-82.8"/>
</g>
<!-- data.ts&#45;&gt;types.ts -->
<g id="edge52" class="edge">
<title>data.ts&#45;&gt;types.ts</title>
<path fill="none" stroke="#757575" d="M701.91,-572.84C743.26,-565.54 822.11,-551.61 870.72,-543.03"/>
<polygon fill="#757575" stroke="#757575" points="871.06,-546.53 880.3,-541.34 869.84,-539.63 871.06,-546.53"/>
</g>
<!-- lib/games.ts&#45;&gt;data.ts -->
<g id="edge53" class="edge">
<title>lib/games.ts&#45;&gt;data.ts</title>
<path fill="none" stroke="#757575" d="M446.7,-826.29C472.02,-816.42 505.56,-800.75 530.25,-779.65 592.56,-726.41 641.16,-640.14 661.81,-599.79"/>
<polygon fill="#757575" stroke="#757575" points="664.84,-601.55 666.2,-591.04 658.59,-598.41 664.84,-601.55"/>
</g>
<!-- lib/games.ts&#45;&gt;lib/firebase.ts -->
<g id="edge54" class="edge">
<title>lib/games.ts&#45;&gt;lib/firebase.ts</title>
<path fill="none" stroke="#757575" d="M453.97,-832C497.93,-825.3 566.04,-814.91 614.55,-807.51"/>
<polygon fill="#757575" stroke="#757575" points="614.97,-810.99 624.33,-806.02 613.91,-804.07 614.97,-810.99"/>
</g>
<!-- lib/games.ts&#45;&gt;types.ts -->
<g id="edge55" class="edge">
<title>lib/games.ts&#45;&gt;types.ts</title>
<path fill="none" stroke="#757575" d="M453.98,-849.76C528.21,-865.98 680.77,-887.38 781,-819.65 872.46,-757.86 901.57,-615.32 909.69,-559.08"/>
<polygon fill="#757575" stroke="#757575" points="913.13,-559.75 910.99,-549.37 906.2,-558.82 913.13,-559.75"/>
</g>
<!-- lib/routes.ts&#45;&gt;components/ui/viewNames.ts -->
<g id="edge58" class="edge">
<title>lib/routes.ts&#45;&gt;components/ui/viewNames.ts</title>
<path fill="none" stroke="#757575" d="M716.6,-111.12C741.42,-109.04 774.07,-106.29 805.58,-103.64"/>
<polygon fill="#757575" stroke="#757575" points="805.49,-107.16 815.16,-102.84 804.9,-100.19 805.49,-107.16"/>
</g>
<!-- lib/sports.ts&#45;&gt;types.ts -->
<g id="edge59" class="edge">
<title>lib/sports.ts&#45;&gt;types.ts</title>
<path fill="none" stroke="#757575" d="M716.06,-535.65C759.47,-535.65 827.27,-535.65 870.78,-535.65"/>
<polygon fill="#757575" stroke="#757575" points="870.59,-539.15 880.59,-535.65 870.59,-532.15 870.59,-539.15"/>
</g>
<!-- app.test.tsx -->
<g id="node21" class="node">
<title>app.test.tsx</title>
<path fill="none" stroke="#c6c5fe" d="M106.71,-850.53C106.71,-850.53 37.54,-850.53 37.54,-850.53 33.58,-850.53 29.62,-846.57 29.62,-842.61 29.62,-842.61 29.62,-834.7 29.62,-834.7 29.62,-830.74 33.58,-826.78 37.54,-826.78 37.54,-826.78 106.71,-826.78 106.71,-826.78 110.67,-826.78 114.62,-830.74 114.62,-834.7 114.62,-834.7 114.62,-842.61 114.62,-842.61 114.62,-846.57 110.67,-850.53 106.71,-850.53"/>
<text xml:space="preserve" text-anchor="middle" x="72.12" y="-833.23" font-family="Arial" font-size="14.00" fill="#c6c5fe">app.test.tsx</text>
</g>
<!-- app.test.tsx&#45;&gt;App.tsx -->
<g id="edge20" class="edge">
<title>app.test.tsx&#45;&gt;App.tsx</title>
<path fill="none" stroke="#757575" d="M77.23,-826.42C96.9,-767.79 181.66,-515.15 207.72,-437.47"/>
<polygon fill="#757575" stroke="#757575" points="210.91,-438.97 210.77,-428.37 204.27,-436.74 210.91,-438.97"/>
</g>
<!-- app.test.tsx&#45;&gt;data.ts -->
<g id="edge21" class="edge">
<title>app.test.tsx&#45;&gt;data.ts</title>
<path fill="none" stroke="#757575" d="M95.45,-826.36C133.88,-805.61 215.47,-763.4 288.5,-737.65 392.81,-700.88 440.46,-743.22 530.25,-678.65 554.58,-661.16 543.33,-640.95 566.25,-621.65 585.91,-605.1 612.66,-594.08 634.41,-587.2"/>
<polygon fill="#757575" stroke="#757575" points="635.23,-590.61 643.82,-584.41 633.24,-583.9 635.23,-590.61"/>
</g>
<!-- app.test.tsx&#45;&gt;lib/firebase.ts -->
<g id="edge22" class="edge">
<title>app.test.tsx&#45;&gt;lib/firebase.ts</title>
<path fill="none" stroke="#757575" d="M114.95,-847.38C196.03,-862.82 379.85,-890.52 530.25,-859.65 570.66,-851.36 613.76,-831.1 641.82,-816.2"/>
<polygon fill="#757575" stroke="#757575" points="643.35,-819.35 650.47,-811.51 640.01,-813.2 643.35,-819.35"/>
</g>
<!-- app.test.tsx&#45;&gt;lib/games.ts -->
<g id="edge23" class="edge">
<title>app.test.tsx&#45;&gt;lib/games.ts</title>
<path fill="none" stroke="#757575" d="M114.91,-838.65C175.22,-838.65 286.76,-838.65 353.6,-838.65"/>
<polygon fill="#757575" stroke="#757575" points="353.22,-842.15 363.22,-838.65 353.22,-835.15 353.22,-842.15"/>
</g>
<!-- app.test.tsx&#45;&gt;types.ts -->
<g id="edge24" class="edge">
<title>app.test.tsx&#45;&gt;types.ts</title>
<path fill="none" stroke="#757575" d="M114.85,-849.81C124.6,-852.73 134.87,-856.08 144.25,-859.65 160.78,-865.96 163.06,-872.46 180.25,-876.65 227.02,-888.05 240.36,-879.77 288.5,-880.65 507.61,-884.7 605.05,-987.3 781,-856.65 880.54,-782.75 905.02,-620.13 910.8,-559.27"/>
<polygon fill="#757575" stroke="#757575" points="914.28,-559.66 911.64,-549.4 907.3,-559.07 914.28,-559.66"/>
</g>
<!-- components/Hero.tsx -->
<g id="node23" class="node">
<title>components/Hero.tsx</title>
<path fill="none" stroke="#cfffac" d="M136.33,-892.53C136.33,-892.53 7.92,-892.53 7.92,-892.53 3.96,-892.53 0,-888.57 0,-884.61 0,-884.61 0,-876.7 0,-876.7 0,-872.74 3.96,-868.78 7.92,-868.78 7.92,-868.78 136.33,-868.78 136.33,-868.78 140.29,-868.78 144.25,-872.74 144.25,-876.7 144.25,-876.7 144.25,-884.61 144.25,-884.61 144.25,-888.57 140.29,-892.53 136.33,-892.53"/>
<text xml:space="preserve" text-anchor="middle" x="72.12" y="-875.23" font-family="Arial" font-size="14.00" fill="#cfffac">components/Hero.tsx</text>
</g>
<!-- index.css -->
<g id="node24" class="node">
<title>index.css</title>
<path fill="none" stroke="#cfffac" d="M244.58,-384.53C244.58,-384.53 188.17,-384.53 188.17,-384.53 184.21,-384.53 180.25,-380.57 180.25,-376.61 180.25,-376.61 180.25,-368.7 180.25,-368.7 180.25,-364.74 184.21,-360.78 188.17,-360.78 188.17,-360.78 244.58,-360.78 244.58,-360.78 248.54,-360.78 252.5,-364.74 252.5,-368.7 252.5,-368.7 252.5,-376.61 252.5,-376.61 252.5,-380.57 248.54,-384.53 244.58,-384.53"/>
<text xml:space="preserve" text-anchor="middle" x="216.38" y="-367.23" font-family="Arial" font-size="14.00" fill="#cfffac">index.css</text>
</g>
<!-- lib/profiles.ts -->
<g id="node25" class="node">
<title>lib/profiles.ts</title>
<path fill="none" stroke="#c6c5fe" d="M446.96,-770.53C446.96,-770.53 371.79,-770.53 371.79,-770.53 367.83,-770.53 363.88,-766.57 363.88,-762.61 363.88,-762.61 363.88,-754.7 363.88,-754.7 363.88,-750.74 367.83,-746.78 371.79,-746.78 371.79,-746.78 446.96,-746.78 446.96,-746.78 450.92,-746.78 454.88,-750.74 454.88,-754.7 454.88,-754.7 454.88,-762.61 454.88,-762.61 454.88,-766.57 450.92,-770.53 446.96,-770.53"/>
<text xml:space="preserve" text-anchor="middle" x="409.38" y="-753.23" font-family="Arial" font-size="14.00" fill="#c6c5fe">lib/profiles.ts</text>
</g>
<!-- lib/profiles.ts&#45;&gt;lib/firebase.ts -->
<g id="edge56" class="edge">
<title>lib/profiles.ts&#45;&gt;lib/firebase.ts</title>
<path fill="none" stroke="#757575" d="M455.16,-765.49C499.18,-772.2 566.56,-782.48 614.64,-789.81"/>
<polygon fill="#757575" stroke="#757575" points="613.91,-793.24 624.32,-791.29 614.96,-786.32 613.91,-793.24"/>
</g>
<!-- lib/profiles.ts&#45;&gt;types.ts -->
<g id="edge57" class="edge">
<title>lib/profiles.ts&#45;&gt;types.ts</title>
<path fill="none" stroke="#757575" d="M455.31,-751.01C478.04,-746.61 505.9,-740.41 530.25,-732.65 645.7,-695.87 674.77,-683.93 781,-625.65 820.14,-604.18 862.19,-574.01 887.93,-554.65"/>
<polygon fill="#757575" stroke="#757575" points="889.9,-557.55 895.75,-548.71 885.67,-551.97 889.9,-557.55"/>
</g>
<!-- main.tsx -->
<g id="node26" class="node">
<title>main.tsx</title>
<path fill="none" stroke="#c6c5fe" d="M97.71,-405.53C97.71,-405.53 46.54,-405.53 46.54,-405.53 42.58,-405.53 38.62,-401.57 38.62,-397.61 38.62,-397.61 38.62,-389.7 38.62,-389.7 38.62,-385.74 42.58,-381.78 46.54,-381.78 46.54,-381.78 97.71,-381.78 97.71,-381.78 101.67,-381.78 105.62,-385.74 105.62,-389.7 105.62,-389.7 105.62,-397.61 105.62,-397.61 105.62,-401.57 101.67,-405.53 97.71,-405.53"/>
<text xml:space="preserve" text-anchor="middle" x="72.12" y="-388.23" font-family="Arial" font-size="14.00" fill="#c6c5fe">main.tsx</text>
</g>
<!-- main.tsx&#45;&gt;App.tsx -->
<g id="edge60" class="edge">
<title>main.tsx&#45;&gt;App.tsx</title>
<path fill="none" stroke="#757575" d="M106.12,-398.53C126.43,-401.52 152.64,-405.39 174.29,-408.59"/>
<polygon fill="#757575" stroke="#757575" points="173.57,-412.02 183.97,-410.02 174.59,-405.1 173.57,-412.02"/>
</g>
<!-- main.tsx&#45;&gt;index.css -->
<g id="edge61" class="edge">
<title>main.tsx&#45;&gt;index.css</title>
<path fill="none" stroke="#757575" d="M106.12,-388.78C124.66,-386.05 148.11,-382.58 168.53,-379.57"/>
<polygon fill="#757575" stroke="#757575" points="168.94,-383.05 178.33,-378.12 167.92,-376.12 168.94,-383.05"/>
</g>
<!-- test/setup.ts -->
<g id="node27" class="node">
<title>test/setup.ts</title>
<path fill="none" stroke="#cfffac" d="M108.58,-934.53C108.58,-934.53 35.67,-934.53 35.67,-934.53 31.71,-934.53 27.75,-930.57 27.75,-926.61 27.75,-926.61 27.75,-918.7 27.75,-918.7 27.75,-914.74 31.71,-910.78 35.67,-910.78 35.67,-910.78 108.58,-910.78 108.58,-910.78 112.54,-910.78 116.5,-914.74 116.5,-918.7 116.5,-918.7 116.5,-926.61 116.5,-926.61 116.5,-930.57 112.54,-934.53 108.58,-934.53"/>
<text xml:space="preserve" text-anchor="middle" x="72.12" y="-917.23" font-family="Arial" font-size="14.00" fill="#cfffac">test/setup.ts</text>
</g>
<!-- vite&#45;env.d.ts -->
<g id="node28" class="node">
<title>vite&#45;env.d.ts</title>
<path fill="none" stroke="#cfffac" d="M108.21,-976.53C108.21,-976.53 36.04,-976.53 36.04,-976.53 32.08,-976.53 28.12,-972.57 28.12,-968.61 28.12,-968.61 28.12,-960.7 28.12,-960.7 28.12,-956.74 32.08,-952.78 36.04,-952.78 36.04,-952.78 108.21,-952.78 108.21,-952.78 112.17,-952.78 116.12,-956.74 116.12,-960.7 116.12,-960.7 116.12,-968.61 116.12,-968.61 116.12,-972.57 112.17,-976.53 108.21,-976.53"/>
<text xml:space="preserve" text-anchor="middle" x="72.12" y="-959.23" font-family="Arial" font-size="14.00" fill="#cfffac">vite&#45;env.d.ts</text>
</g>
</g>
</svg>
